<?xml version="1.0" encoding="utf-8"?>
<!-- Generator: Adobe Illustrator 16.0.0, SVG Export Plug-In . SVG Version: 6.00 Build 0)  -->
<!DOCTYPE svg PUBLIC "-//W3C//DTD SVG 1.1//EN" "http://www.w3.org/Graphics/SVG/1.1/DTD/svg11.dtd">
<svg version="1.1" id="Capa_1" xmlns="http://www.w3.org/2000/svg" xmlns:xlink="http://www.w3.org/1999/xlink" x="0px" y="0px"
	 width="512px" height="512px" viewBox="0 0 512 512" enable-background="new 0 0 512 512" xml:space="preserve">
<linearGradient id="SVGID_1_" gradientUnits="userSpaceOnUse" x1="-25.3359" y1="108.9189" x2="485.7141" y2="376.7629">
	<stop  offset="0" style="stop-color:#FFFFFF;stop-opacity:0"/>
	<stop  offset="1" style="stop-color:#EC4155"/>
</linearGradient>
<path fill="url(#SVGID_1_)" d="M512,256c0,141.385-114.615,256-256,256S0,397.385,0,256C0,163.987,48.544,83.311,121.419,38.188
	c0.888-0.55,5.494,1.054,6.39,0.514c9.923-5.978,16.571-9.56,27.312-14.17c1.028-0.441,2.059-4.764,3.093-5.192
	C188.342,6.877,221.368,0,256,0s67.658,6.877,97.787,19.34c1.861,0.77,1.082,6.592,2.922,7.405
	c8.425,3.722,13.053,7.681,20.973,12.255c2.258,1.305,10.685-2.183,12.899-0.812C463.456,83.311,512,163.987,512,256L512,256z"/>
<path fill="#FFC14F" d="M392.98,252.963c0,99.411-80.59,180-180,180c-99.411,0-180-80.589-180-180s80.589-180,180-180
	C312.391,72.963,392.98,153.552,392.98,252.963L392.98,252.963z"/>
<path fill="#C8E2FD" d="M421,470H115.5c-8.284,0-15-6.716-15-15V215c0-8.284,6.716-15,15-15H421c8.284,0,15,6.716,15,15v240
	C436,463.284,429.284,470,421,470z"/>
<path fill="#97BFFD" d="M125,470H91c-8.284,0-15-6.716-15-15V215c0-8.284,6.716-15,15-15h34c-8.284,0-15,6.716-15,15v240
	C110,463.284,116.716,470,125,470z"/>
<path fill="#0A4499" d="M201.36,78.231c6.626,9.044,4.709,21.835-4.414,28.35c-0.153,0.11-0.307,0.219-0.461,0.328
	c-8.978,6.369-21.428,4.266-27.947-4.603l-47.119-64.117c11.674-7.228,23.972-13.544,36.794-18.848L201.36,78.231z"/>
<path fill="#0956C6" d="M196.924,72.175l64.373,87.862L240.333,200L164.094,96.258c-7.458-10.148-4.049-24.667,7.252-30.227
	c0.124-0.061,0.248-0.122,0.371-0.182C180.512,61.547,191.138,64.278,196.924,72.175z"/>
<path fill="#0A66EA" d="M390.581,38.188L271.667,200l-20.963-39.963L353.787,19.34C366.609,24.644,378.907,30.96,390.581,38.188z"/>
<path fill="#2476ED" d="M319.904,65.586c5.832-7.96,16.574-10.671,25.392-6.239c0.123,0.062,0.246,0.124,0.369,0.186
	c11.171,5.647,14.487,20.06,7.076,30.146L271.667,200l-20.963-39.963L319.904,65.586z"/>
<path fill="#FFC14F" d="M311,230c0,4.142-3.357,7.5-7.5,7.5h-95c-4.142,0-7.5-3.358-7.5-7.5s3.358-7.5,7.5-7.5h95
	C307.643,222.5,311,225.858,311,230z"/>
<path fill="#3493F8" d="M276,125v100c0,2.761-2.239,5-5,5h-30c-2.761,0-5-2.239-5-5V125c0-2.761,2.239-5,5-5h30
	C273.761,120,276,122.239,276,125z"/>
<path fill="#97BFFD" d="M271,155c0,8.284-6.716,15-15,15s-15-6.716-15-15s6.716-15,15-15S271,146.716,271,155z"/>
<path fill="#0956C6" d="M200.822,209.435c0,41.875-33.947,75.822-75.822,75.822s-75.822-33.947-75.822-75.822
	S83.125,133.612,125,133.612C166.876,133.612,200.822,167.559,200.822,209.435z"/>
<path fill="#0A66EA" d="M200.822,209.435c0,15.71-4.778,30.305-12.959,42.408c-12.104,8.182-26.698,12.959-42.408,12.959
	c-41.875,0-75.822-33.947-75.822-75.822c0-15.71,4.778-30.303,12.959-42.408c12.104-8.182,26.698-12.959,42.408-12.959
	C166.876,133.612,200.822,167.559,200.822,209.435z"/>
<path fill="#0A3575" d="M125,128.612c-44.565,0-80.822,36.257-80.822,80.821c0,44.565,36.257,80.823,80.822,80.823
	c44.565,0,80.823-36.257,80.823-80.822C205.822,164.87,169.566,128.612,125,128.612L125,128.612z M187.545,242.639
	c-10.285,2.424-22.283,4.137-34.991,5.14c1.691-8.568,2.792-17.831,3.281-27.192c14.326-1.119,27.93-3.036,39.785-5.751
	C194.862,224.819,192.027,234.231,187.545,242.639L187.545,242.639z M125,280.257c-4.596,0-10.302-7.855-14.625-21.75
	c4.843,0.188,9.734,0.282,14.625,0.282c4.891,0,9.781-0.094,14.625-0.282C135.302,272.401,129.596,280.257,125,280.257z
	 M107.739,248.428c-1.71-7.85-2.982-16.979-3.544-27.194c6.864,0.354,13.835,0.529,20.806,0.529c6.971,0,13.942-0.176,20.806-0.529
	c-0.563,10.215-1.834,19.345-3.544,27.194C130.867,248.973,119.134,248.973,107.739,248.428L107.739,248.428z M63.604,174.158
	c9.619,2.325,20.706,4.006,32.447,5.039c-1.442,9.73-2.177,20.066-2.177,30.237c0,0.379,0.001,0.758,0.003,1.138
	c-14.335-1.175-27.885-3.182-39.533-6.021C55.098,193.546,58.377,183.222,63.604,174.158z M125,138.612
	c5.575,0,12.782,11.555,17.173,31.427c-11.327,0.594-23.02,0.594-34.347,0C112.219,150.168,119.426,138.612,125,138.612z
	 M125,180.433c6.372,0,12.745-0.175,19.002-0.524c1.328,8.72,2.123,18.626,2.123,29.525c0,0.608-0.003,1.214-0.008,1.816
	c-13.919,0.753-28.317,0.753-42.236,0c-0.005-0.603-0.008-1.207-0.008-1.816c0-10.899,0.795-20.806,2.123-29.525
	C112.256,180.258,118.628,180.433,125,180.433z M195.656,204.553c-11.649,2.839-25.198,4.845-39.533,6.021
	c0.002-0.379,0.003-0.76,0.003-1.139c0-10.171-0.735-20.507-2.177-30.237c11.741-1.033,22.829-2.713,32.447-5.039
	C191.624,183.222,194.903,193.546,195.656,204.553L195.656,204.553z M54.382,214.835c11.855,2.715,25.459,4.632,39.785,5.751
	c0.489,9.361,1.59,18.624,3.281,27.192c-12.708-1.003-24.707-2.716-34.991-5.14C57.974,234.231,55.138,224.819,54.382,214.835
	L54.382,214.835z M180.342,165.287c-8.528,1.846-18.092,3.2-28.142,4.063c-2.378-11.375-5.818-21.422-10.267-28.692
	C157.317,144.446,170.74,153.276,180.342,165.287z M108.068,140.657c-4.449,7.271-7.889,17.317-10.267,28.692
	c-10.05-0.862-19.614-2.217-28.142-4.063C79.26,153.276,92.683,144.446,108.068,140.657z M70.373,254.461
	c9.096,1.609,19.079,2.77,29.455,3.48c2.173,7.898,4.927,14.854,8.24,20.27C93.061,274.516,79.921,266.023,70.373,254.461z
	 M141.932,278.211c3.314-5.415,6.068-12.371,8.24-20.27c10.376-0.712,20.359-1.871,29.455-3.48
	C170.08,266.023,156.939,274.516,141.932,278.211z"/>
<path fill="#FB5858" d="M233.917,242.601c-11.697,22.973-34.236,45.401-49.461,46.676c-0.43,0.039-0.865,0.057-1.309,0.057
	s-0.88-0.018-1.309-0.057c-15.225-1.275-37.765-23.703-49.461-46.676c-13.014-25.554-7.682-42.103,7.17-46.268
	c12.267-3.44,27.189,2.644,39.345,19.262c2.026,2.771,6.483,2.771,8.511,0c12.156-16.618,27.078-22.702,39.344-19.262
	C241.599,200.498,246.931,217.047,233.917,242.601L233.917,242.601z"/>
<path fill="#F44545" d="M202.921,280.309c-6.539,4.99-12.978,8.199-18.465,8.658c-0.43,0.039-0.865,0.059-1.309,0.057
	c-0.443,0.002-0.88-0.018-1.309-0.057c-15.225-1.273-37.765-23.703-49.461-46.674c-13.014-25.555-7.682-42.104,7.17-46.269
	c0.404-0.113,0.81-0.216,1.219-0.308c0.095,8.306,2.822,18.428,8.785,30.137C162.125,250.541,185.207,274.701,202.921,280.309
	L202.921,280.309z"/>
</svg>
